<svg width="56" height="56" viewBox="0 0 56 56" fill="none" xmlns="http://www.w3.org/2000/svg">
<path d="M32.1453 10.1063L47.4569 10.1824L47.3626 29.1688C47.3373 34.2727 46.2972 38.1466 44.2425 40.7905C41.9831 43.5355 38.1984 45.0989 32.8883 45.4808L32.9332 36.447C34.7706 36.4561 36.3055 35.6981 37.5381 34.173C38.1546 33.3594 38.4687 31.7788 38.4803 29.431L38.4948 26.5218L32.0639 26.4898L32.1453 10.1063ZM8.25905 9.98768L23.5707 10.0637L23.4764 29.0502C23.4511 34.1541 22.5139 37.8754 20.6648 40.214C18.1997 43.2642 14.3121 44.9803 9.00207 45.3622L9.04694 36.3283C12.2114 36.344 14.0056 34.7707 14.4296 31.6083C14.5337 31.2005 14.5886 30.4352 14.5941 29.3123L14.6086 26.4031L8.17768 26.3712L8.25905 9.98768Z" fill="#000F29"/>
</svg>
