<!DOCTYPE svg PUBLIC "-//W3C//DTD SVG 1.1//EN" "http://www.w3.org/Graphics/SVG/1.1/DTD/svg11.dtd">
<!-- Uploaded to: SVG Repo, www.svgrepo.com, Transformed by: SVG Repo Mixer Tools -->
<svg height="800px" width="800px" version="1.1" id="Layer_1" xmlns="http://www.w3.org/2000/svg" xmlns:xlink="http://www.w3.org/1999/xlink" viewBox="0 0 512 512" xml:space="preserve" fill="#000000">
<g id="SVGRepo_bgCarrier" stroke-width="0"/>
<g id="SVGRepo_tracerCarrier" stroke-linecap="round" stroke-linejoin="round"/>
<g id="SVGRepo_iconCarrier"> <path style="fill:#F4FFF9;" d="M500.87,22.261v467.478c0,6.147-4.983,11.13-11.13,11.13H22.261c-6.147,0-11.13-4.983-11.13-11.13 V22.261c0-6.147,4.983-11.13,11.13-11.13h467.478C495.886,11.13,500.87,16.114,500.87,22.261z"/> <path style="fill:#4387b1;" d="M489.739,467.478v33.391c0,6.147-4.983,11.13-11.13,11.13H11.13C4.983,512,0,507.017,0,500.87 v-33.391c0-6.147,4.983-11.13,11.13-11.13h467.478C484.756,456.348,489.739,461.331,489.739,467.478z"/> <path style="fill:#5ea1f7;" d="M228.174,322.783v111.304H27.826V322.783c0-36.883,29.9-66.783,66.783-66.783h66.783 C198.274,256,228.174,285.9,228.174,322.783z"/> <path style="fill:#4b73ec;" d="M128,434.087H27.826V322.783c0-36.883,29.9-66.783,66.783-66.783H128V434.087z"/> <path style="fill:#e6dcc1;" d="M250.435,512H150.261C137.966,512,128,502.034,128,489.739V345.043 c0-12.295,9.966-22.261,22.261-22.261h100.174c12.295,0,22.261,9.966,22.261,22.261v144.696 C272.696,502.034,262.729,512,250.435,512z"/> <path style="fill:#C1B291;" d="M164.174,367.304c0-4.61,3.738-8.348,8.348-8.348h66.783c4.61,0,8.348,3.738,8.348,8.348 c0,4.61-3.738,8.348-8.348,8.348h-66.783C167.912,375.652,164.174,371.915,164.174,367.304z M239.304,392.348h-66.783 c-4.61,0-8.348,3.738-8.348,8.348c0,4.61,3.738,8.348,8.348,8.348h66.783c4.61,0,8.348-3.738,8.348-8.348 C247.652,396.085,243.915,392.348,239.304,392.348z M239.304,459.13h-66.783c-4.61,0-8.348,3.738-8.348,8.348 s3.738,8.348,8.348,8.348h66.783c4.61,0,8.348-3.738,8.348-8.348S243.915,459.13,239.304,459.13z M239.304,425.739h-44.522 c-4.61,0-8.348,3.738-8.348,8.348s3.738,8.348,8.348,8.348h44.522c4.61,0,8.348-3.738,8.348-8.348S243.915,425.739,239.304,425.739z "/> <path style="fill:#F4C064;" d="M172.522,178.087c0,24.588-19.933,44.522-44.522,44.522s-44.522-19.933-44.522-44.522 s19.933-44.522,44.522-44.522C152.589,133.565,172.522,153.499,172.522,178.087z M128,422.957H72.348v-66.783 c0-6.147-4.983-11.13-11.13-11.13H27.826v100.174c0,12.295,9.966,22.261,22.261,22.261H128c12.295,0,22.261-9.966,22.261-22.261l0,0 C150.261,432.923,140.295,422.957,128,422.957z"/> <path style="fill:#F4AB53;" d="M128,133.565v89.043c-24.588,0-44.522-19.933-44.522-44.522S103.412,133.565,128,133.565z"/> <path style="fill:#B28D5B;" d="M484.174,189.217v111.304c0,6.147-4.983,11.13-11.13,11.13h-33.391h-33.391 c-6.147,0-11.13-4.983-11.13-11.13V189.217c0-6.147,4.983-11.13,11.13-11.13h22.261c6.147,0,11.13,4.983,11.13,11.13 c0-6.147,4.983-11.13,11.13-11.13h22.261C479.191,178.087,484.174,183.07,484.174,189.217z"/> <path style="fill:#7F5D3B;" d="M461.913,178.087v133.565h-11.13c-6.147,0-11.13-4.983-11.13-11.13c0,6.147-4.983,11.13-11.13,11.13 h-22.261c-6.147,0-11.13-4.983-11.13-11.13V189.217c0-6.147,4.983-11.13,11.13-11.13h22.261c6.147,0,11.13,4.983,11.13,11.13 c0-6.147,4.983-11.13,11.13-11.13H461.913z"/> <path style="fill:#FF8355;" d="M384,11.13v111.304c0,6.147-4.983,11.13-11.13,11.13h-33.391h-33.391 c-6.147,0-11.13-4.983-11.13-11.13V11.13c0-6.147,4.983-11.13,11.13-11.13h22.261c6.147,0,11.13,4.983,11.13,11.13 c0-6.147,4.983-11.13,11.13-11.13h22.261C379.017,0,384,4.983,384,11.13z"/> <path style="fill:#E55D30;" d="M361.739,0v133.565h-22.261h-33.391c-6.147,0-11.13-4.983-11.13-11.13V11.13 c0-6.147,4.983-11.13,11.13-11.13h22.261c6.147,0,11.13,4.983,11.13,11.13c0-6.147,4.983-11.13,11.13-11.13H361.739z"/> <path style="fill:#B28D5B;" d="M339.478,133.565h-33.391c-6.147,0-11.13-4.983-11.13-11.13V11.13c0-6.147,4.983-11.13,11.13-11.13 h22.261c6.147,0,11.13,4.983,11.13,11.13V133.565z"/> <path style="fill:#7F5D3B;" d="M317.217,133.565h-11.13c-6.147,0-11.13-4.983-11.13-11.13V11.13c0-6.147,4.983-11.13,11.13-11.13 h11.13V133.565z"/> <path style="fill:#4b73ec;" d="M475.628,118.066l-19.278,11.13c-5.324,3.073-12.131,1.25-15.204-4.074L385.494,28.73 c-3.073-5.324-1.25-12.131,4.074-15.204l19.278-11.13c5.324-3.073,12.131-1.25,15.204,4.074l55.652,96.393 C482.776,108.184,480.952,114.992,475.628,118.066z"/> <path style="fill:#5B7A7F;" d="M465.989,123.631l-9.639,5.565c-5.324,3.073-12.131,1.25-15.204-4.074L385.494,28.73 c-3.073-5.324-1.25-12.131,4.074-15.204l9.639-5.565L465.989,123.631z"/> <path style="fill:#FFA233;" d="M428.522,311.652h-22.261c-6.147,0-11.13-4.983-11.13-11.13V189.217c0-6.147,4.983-11.13,11.13-11.13 h22.261c6.147,0,11.13,4.983,11.13,11.13v111.304C439.652,306.669,434.669,311.652,428.522,311.652z"/> <path style="fill:#FF7E1D;" d="M417.391,311.652h-11.13c-6.147,0-11.13-4.983-11.13-11.13V189.217c0-6.147,4.983-11.13,11.13-11.13 h11.13V311.652z"/> <path style="fill:#4387b1;" d="M503.652,141.913H269.913c-4.61,0-8.348-3.738-8.348-8.348c0-4.61,3.738-8.348,8.348-8.348h233.739 c4.61,0,8.348,3.738,8.348,8.348C512,138.175,508.262,141.913,503.652,141.913z M503.652,303.304H325.565 c-4.61,0-8.348,3.738-8.348,8.348s3.738,8.348,8.348,8.348h178.087c4.61,0,8.348-3.738,8.348-8.348S508.262,303.304,503.652,303.304 z"/> <path style="fill:#C1B291;" d="M367.304,456.348H500.87c6.147,0,11.13,4.983,11.13,11.13v33.391c0,6.147-4.983,11.13-11.13,11.13 H367.304c-6.147,0-11.13-4.983-11.13-11.13v-33.391C356.174,461.331,361.157,456.348,367.304,456.348z"/> <path style="fill:#DBCBA1;" d="M367.304,422.957H500.87c6.147,0,11.13,4.983,11.13,11.13v33.391c0,6.147-4.983,11.13-11.13,11.13 H367.304c-6.147,0-11.13-4.983-11.13-11.13v-33.391C356.174,427.94,361.157,422.957,367.304,422.957z"/> <path style="fill:#e6dcc1;" d="M367.304,389.565H500.87c6.147,0,11.13,4.983,11.13,11.13v33.391c0,6.147-4.983,11.13-11.13,11.13 H367.304c-6.147,0-11.13-4.983-11.13-11.13v-33.391C356.174,394.548,361.157,389.565,367.304,389.565z"/> <path style="fill:#DBCBA1;" d="M486.957,389.565v22.261c0,4.61-3.738,8.348-8.348,8.348s-8.348-3.738-8.348-8.348v-22.261H486.957z M436.87,411.826c0,4.61,3.738,8.348,8.348,8.348s8.348-3.738,8.348-8.348v-22.261H436.87V411.826z M403.478,411.826 c0,4.61,3.738,8.348,8.348,8.348c4.61,0,8.348-3.738,8.348-8.348v-22.261h-16.696V411.826z"/> </g>
</svg>