<svg width="55" height="55" viewBox="0 0 55 55" fill="none" xmlns="http://www.w3.org/2000/svg">
<path d="M23.2335 45.1H7.99536V26.2048C7.99536 21.1254 9.01123 17.2651 11.043 14.6238C13.2779 11.881 17.0366 10.3064 22.3192 9.90002V18.8905C20.4906 18.8905 18.9668 19.6524 17.7477 21.1762C17.1382 21.9889 16.8335 23.5635 16.8335 25.9V28.7953H23.2335V45.1ZM47.0049 45.1H31.7668V26.2048C31.7668 21.1254 32.6811 17.4175 34.5096 15.081C36.9477 12.0334 40.8081 10.3064 46.0906 9.90002V18.8905C42.9414 18.8905 41.1636 20.4651 40.7573 23.6143C40.6557 24.0207 40.6049 24.7826 40.6049 25.9V28.7953H47.0049V45.1Z" fill="#00102A"/>
</svg>
